# xmcd
#
# Track frame offsets:
# 150
# 13514
# 26469
# 45382
# 57412
# 73018
# 88364
# 102433
# 120018
# 132685
# 150864
#
# Disc length: 2204 seconds
#
#
# Revision: 0
# Processed by: cddbd v1.5.2PL0 Copyright (c) Steve Scherf et al.
# Submitted via: FreeRIP 2.96 
#
DISCID=87089a0b
DTITLE=Sérgio Reis - Questão De Tempo
DYEAR=2013
DGENRE=Sertanejo
TTITLE0=Morena Faz De Conta
TTITLE1=Boteco Da Esquina
TTITLE2=Tetinha
TTITLE3=Choro De Saudade
TTITLE4=Fã De Jesus
TTITLE5=Matuto
TTITLE6=Fazenda Paraíso
TTITLE7=Meu Lugar
TTITLE8=Casei Porque Bebi
TTITLE9=Questão De Tempo
TTITLE10=A Mala
EXTD=Ano 2013 - M. P. A.
EXTT0=
EXTT1=
EXTT2=
EXTT3=
EXTT4=
EXTT5=
EXTT6=
EXTT7=
EXTT8=
EXTT9=
EXTT10=
PLAYORDER=
